# xmcd
#
# Track frame offsets:
#	150
#	14400
#	27460
#	42452
#	53800
#	70647
#	84892
#	101100
#	114050
#	125527
#	137075
#	152247
#
# Disc length: 2240 seconds
#
# Revision: 3
# Processed by: cddbd v1.5.1PL0 Copyright (c) Steve Scherf et al.
# Submitted via: audiograbber 1.83.01
#
DISCID=9908be0c
DTITLE=Various Artist - Starke Frauen - Country Ladies
DYEAR=1994
DGENRE=Country
TTITLE0=Hanna and Daana - It's Countrytime In Germany
TTITLE1=Linda Feller - Zwei Fäuste Und Ein Whisky
TTITLE2=Queens Of Heart - Ich Hab' Den Honky Tonk Blues
TTITLE3=Dagmar - Von Dir Hab' Ich Die Nase Voll
TTITLE4=Hanna and Daana - Küsse Wie Feuer
TTITLE5=Queens Of Heart - Er Und Sein Truck
TTITLE6=Linda Feller - Mitten Ins Herz
TTITLE7=Country Rose - Was Wär'n Die Männer Ohne Die Frau'n
TTITLE8=Dagmar - Teenage-Country Love
TTITLE9=Hanna and Daana - Eine Frau Weiß Genau...
TTITLE10=Dagmar - Ein Cowboy, Der Auch Zärtlich Ist
TTITLE11=Linda Feller - Spiel Mir Noch Einmal Das Lied
EXTD=
EXTT0=
EXTT1=
EXTT2=
EXTT3=
EXTT4=
EXTT5=
EXTT6=
EXTT7=
EXTT8=
EXTT9=
EXTT10=
EXTT11=
PLAYORDER=
